<?xml version="1.0" encoding="UTF-8"?>
<!DOCTYPE svg PUBLIC "-//W3C//DTD SVG 1.1//EN" "http://www.w3.org/Graphics/SVG/1.1/DTD/svg11.dtd">
<!-- Creator: CorelDRAW X7 -->
<svg xmlns="http://www.w3.org/2000/svg" xml:space="preserve" width="105mm" height="19mm" version="1.1" style="shape-rendering:geometricPrecision; text-rendering:geometricPrecision; image-rendering:optimizeQuality; fill-rule:evenodd; clip-rule:evenodd"
viewBox="0 0 10500 1900"
 xmlns:xlink="http://www.w3.org/1999/xlink">
 <defs>
  <style type="text/css">
   <![CDATA[
    .fil2 {fill:#CC2529;fill-rule:nonzero}
    .fil1 {fill:#DDD900;fill-rule:nonzero}
    .fil0 {fill:#343986;fill-rule:nonzero}
   ]]>
  </style>
 </defs>
 <g id="Layer_x0020_1">
  <metadata id="CorelCorpID_0Corel-Layer"/>
  <g id="_406897970048">
   <path class="fil0" d="M2410 1231l0 -19c10,-1 17,-3 20,-7 4,-3 5,-9 5,-19l0 -365 -98 0c-15,0 -26,3 -33,8 -6,5 -10,14 -11,27l-17 0 0 -77 379 0 0 77 -18 0c-1,-13 -4,-22 -11,-27 -6,-5 -17,-8 -32,-8l-99 0 0 365c0,10 2,16 5,20 4,3 10,5 21,6l0 19 -111 0zm441 -245c41,0 72,-7 91,-20 19,-14 29,-35 29,-64 0,-29 -8,-50 -24,-62 -16,-13 -43,-19 -81,-19l-96 0 0 165 81 0zm-162 245l0 -19c9,-1 15,-3 18,-7 4,-3 5,-10 5,-19l0 -361c0,-10 -1,-16 -4,-19 -3,-4 -9,-6 -18,-7l0 -20 197 0c46,0 81,11 105,31 24,20 36,49 36,86 0,37 -11,67 -35,89 -23,22 -56,35 -100,39l126 170c3,5 8,9 13,12 6,3 12,5 19,6l0 19 -76 0 -147 -204 -58 0 0 159c0,9 2,16 5,19 3,4 9,6 19,7l0 19 -105 0zm401 0l0 -19c9,-1 15,-3 18,-7 3,-3 5,-9 5,-19l0 -361c0,-6 -1,-10 -2,-13 0,-3 -2,-5 -3,-7 -2,-1 -4,-2 -7,-3 -3,-2 -7,-3 -11,-3l0 -20 105 0 0 20c-9,1 -15,3 -18,7 -3,3 -5,9 -5,19l0 361c0,9 2,16 5,19 3,4 10,6 18,7l0 19 -105 0zm530 4c-17,2 -32,4 -47,5 -14,1 -27,2 -37,2 -33,0 -63,-3 -89,-10 -26,-7 -50,-17 -72,-31 -41,-26 -73,-58 -95,-96 -21,-38 -32,-78 -32,-122 0,-25 3,-49 11,-71 7,-21 18,-41 33,-59 21,-27 47,-47 78,-61 31,-14 65,-21 103,-21 34,0 65,5 92,16 26,10 52,27 77,50l-57 57 -16 -14c3,-3 4,-7 6,-9 1,-3 1,-6 1,-9 0,-13 -10,-24 -29,-34 -20,-11 -44,-16 -71,-16 -50,0 -89,16 -119,46 -30,30 -45,71 -45,121 0,28 5,55 15,81 11,25 26,49 46,70 20,21 45,37 73,50 28,12 56,19 83,19 21,0 37,-5 50,-13 13,-8 21,-19 23,-33l18 0 0 82zm140 -49c0,9 2,16 5,19 3,4 9,6 18,7l0 19 -104 0 0 -19c9,-1 15,-3 18,-7 3,-3 5,-10 5,-19l0 -361c0,-6 -1,-10 -1,-13 -1,-2 -3,-5 -5,-7 -1,-1 -3,-2 -6,-3 -3,-1 -7,-2 -11,-3l0 -20 104 0 0 20c-9,1 -15,4 -18,7 -3,3 -5,10 -5,19l0 132 250 0 0 -132c0,-9 -1,-16 -4,-19 -4,-3 -10,-6 -19,-7l0 -20 104 0 0 20c-9,1 -15,4 -18,7 -3,3 -4,10 -4,19l0 361c0,10 1,16 4,19 3,4 9,6 18,7l0 19 -104 0 0 -19c9,-1 15,-3 19,-7 3,-3 4,-10 4,-19l0 -189 -250 0 0 189zm550 -200c41,0 71,-7 91,-20 19,-14 29,-35 29,-64 0,-29 -8,-50 -24,-62 -16,-13 -43,-19 -81,-19l-96 0 0 165 81 0zm-162 245l0 -19c9,-1 15,-3 18,-7 3,-3 5,-10 5,-19l0 -361c0,-10 -2,-16 -5,-19 -3,-4 -9,-6 -18,-7l0 -20 198 0c45,0 80,11 105,31 24,20 36,49 36,86 0,37 -12,67 -35,89 -23,22 -57,35 -100,39l126 170c3,5 7,9 13,12 5,3 12,5 19,6l0 19 -76 0 -147 -204 -58 0 0 159c0,9 2,16 5,19 3,4 9,6 18,7l0 19 -104 0zm458 -224c0,60 14,107 44,142 29,34 70,51 121,51 51,0 92,-17 121,-51 30,-35 45,-82 45,-142 0,-60 -15,-107 -45,-142 -29,-35 -70,-52 -121,-52 -51,0 -91,17 -121,52 -30,35 -44,82 -44,142zm-65 0c0,-34 6,-66 18,-96 12,-30 29,-56 50,-78 21,-21 45,-36 72,-46 27,-11 57,-16 90,-16 33,0 63,5 90,16 27,10 51,25 72,46 21,22 38,48 49,78 12,30 18,62 18,96 0,34 -6,66 -18,96 -11,30 -28,56 -49,77 -21,21 -45,37 -72,47 -26,10 -57,15 -90,15 -33,0 -63,-5 -90,-15 -27,-10 -51,-26 -72,-47 -21,-21 -38,-47 -50,-77 -12,-30 -18,-62 -18,-96zm564 224l-86 0 0 -19c7,-1 12,-4 15,-7 4,-3 6,-8 8,-15l66 -371c0,0 1,-1 1,-2 0,-2 0,-3 0,-5 0,-4 -1,-7 -4,-9 -2,-2 -6,-4 -12,-4l-1 -20 77 0 104 257 98 -257 78 0 0 20c-6,0 -11,2 -13,4 -3,2 -4,6 -4,12 0,1 0,3 0,4 0,2 1,4 1,7l63 364c1,8 4,13 7,16 3,2 8,5 15,6l0 19 -97 0 0 -19c6,-1 11,-2 14,-4 3,-3 4,-6 4,-11 0,-2 0,-3 0,-4 0,-1 0,-2 -1,-3l-56 -329 -102 265 -27 0 -106 -262 -60 326c0,1 0,2 0,3 0,1 0,2 0,4 0,5 1,8 4,11 3,2 8,4 14,4l0 19zm481 0l-83 0 0 -19c5,-1 9,-3 12,-6 4,-4 7,-11 12,-21l162 -406 42 0 168 412c4,9 7,15 9,17 2,3 5,4 8,4l0 19 -93 0 0 -19c7,-1 11,-2 14,-4 2,-1 3,-4 3,-8 0,-1 0,-2 0,-4 -1,-1 -1,-2 -1,-3l-57 -144 -157 0 -55 140c0,1 0,1 0,3 -1,1 -1,3 -1,4 0,6 1,9 4,12 2,2 7,3 13,4l0 19zm55 -223l125 0 -64 -158 -61 158zm370 223l0 -19c11,-1 17,-3 21,-7 3,-3 5,-9 5,-19l0 -365 -98 0c-16,0 -27,3 -33,8 -7,5 -11,14 -11,27l-18 0 0 -77 380 0 0 77 -18 0c-1,-13 -5,-22 -11,-27 -6,-5 -17,-8 -33,-8l-99 0 0 365c0,10 2,16 6,20 3,3 10,5 20,6l0 19 -111 0zm281 0l0 -19c9,-1 15,-3 18,-7 3,-3 5,-9 5,-19l0 -361c0,-6 0,-10 -1,-13 -1,-3 -2,-5 -4,-7 -1,-1 -4,-2 -7,-3 -3,-2 -6,-3 -10,-3l-1 -20 106 0 0 20c-10,1 -16,3 -19,7 -3,3 -5,9 -5,19l0 361c0,9 2,16 6,19 3,4 9,6 18,7l0 19 -106 0zm531 4c-17,2 -33,4 -47,5 -15,1 -27,2 -38,2 -33,0 -62,-3 -89,-10 -26,-7 -50,-17 -72,-31 -41,-26 -72,-58 -94,-96 -22,-38 -33,-78 -33,-122 0,-25 4,-49 11,-71 8,-21 19,-41 33,-59 21,-27 47,-47 78,-61 32,-14 66,-21 103,-21 34,0 65,5 92,16 27,10 53,27 78,50l-58 57 -15 -14c2,-3 4,-7 5,-9 1,-3 2,-6 2,-9 0,-13 -10,-24 -30,-34 -20,-11 -43,-16 -71,-16 -49,0 -89,16 -119,46 -30,30 -45,71 -45,121 0,28 5,55 16,81 10,25 25,49 45,70 21,21 45,37 73,50 28,12 56,19 84,19 20,0 37,-5 50,-13 13,-8 20,-19 22,-33l19 0 0 82zm235 -130l0 -49 159 0 0 49 -159 0zm523 126l-147 -412c-3,-7 -6,-13 -9,-16 -2,-3 -5,-4 -9,-4l-3 0 0 -20 96 0 0 20c-7,1 -11,2 -13,4 -2,1 -4,4 -4,8 0,1 1,2 1,3 0,2 0,3 1,4l116 322 78 -216 -38 -105c-3,-7 -5,-13 -8,-16 -3,-3 -6,-4 -9,-4l-3 0 0 -20 93 0 0 20c-7,1 -11,2 -13,4 -2,1 -3,4 -3,8 0,1 0,2 0,3 0,2 0,3 1,4l113 317 114 -313c0,-1 1,-2 1,-3 0,-2 0,-3 0,-5 0,-5 -1,-8 -4,-11 -3,-2 -7,-4 -14,-4l0 -20 86 0 0 20c-6,0 -10,2 -14,7 -4,4 -8,10 -11,20l-149 405 -32 0 -89 -248 -91 248 -37 0zm437 0l0 -19c9,-1 15,-3 18,-7 3,-3 5,-9 5,-19l0 -361c0,-10 -2,-16 -5,-19 -3,-4 -9,-6 -18,-7l0 -20 335 0 0 77 -19 0c0,-13 -4,-22 -11,-27 -7,-5 -24,-8 -51,-8l-172 0 0 134 161 0c11,0 19,-2 24,-5 5,-3 8,-9 9,-17l17 0 0 86 -17 0c-1,-8 -4,-14 -9,-17 -5,-4 -13,-5 -24,-5l-161 0 0 191 204 0c17,0 29,-3 36,-9 7,-7 11,-17 11,-31l18 0 0 83 -351 0zm377 -102l66 -43 14 19c-6,4 -11,8 -13,14 -3,5 -5,10 -5,16 0,17 12,33 34,46 22,13 49,20 81,20 38,0 67,-8 89,-23 23,-16 34,-37 34,-63 0,-19 -6,-34 -17,-46 -12,-11 -32,-21 -61,-31l-94 -31c-37,-12 -64,-27 -81,-46 -18,-19 -27,-42 -27,-69 0,-36 15,-65 44,-88 30,-22 68,-33 116,-33 30,0 57,5 82,16 25,10 49,26 74,49l-50 59 -17 -13c2,-3 4,-7 5,-11 1,-4 2,-9 2,-13 0,-12 -10,-23 -29,-33 -19,-10 -41,-15 -67,-15 -32,0 -57,7 -76,20 -20,13 -29,31 -29,52 0,16 5,28 15,38 11,9 31,19 61,29l77 25c46,15 79,33 98,54 19,20 29,47 29,79 0,43 -16,76 -48,100 -31,24 -75,36 -130,36 -44,0 -81,-9 -109,-28 -29,-18 -52,-47 -68,-86zm518 102l0 -19c10,-1 17,-3 20,-7 4,-3 5,-9 5,-19l0 -365 -98 0c-15,0 -26,3 -33,8 -6,5 -10,14 -11,27l-17 0 0 -77 379 0 0 77 -18 0c-1,-13 -4,-22 -11,-27 -6,-5 -17,-8 -32,-8l-99 0 0 365c0,10 2,16 5,20 4,3 10,5 21,6l0 19 -111 0zm198 98l-18 -17c13,-13 23,-26 31,-38 8,-12 13,-23 15,-33 -13,-1 -22,-5 -29,-12 -7,-6 -10,-16 -10,-28 0,-11 3,-19 11,-26 7,-7 16,-11 27,-11 13,0 22,4 29,12 7,8 10,20 10,35 0,18 -5,36 -15,54 -10,19 -27,40 -51,64zm331 -98l0 -19c9,-1 15,-3 18,-7 3,-3 5,-9 5,-19l0 -361c0,-6 0,-10 -1,-13 -1,-3 -2,-5 -4,-7 -2,-1 -4,-2 -7,-3 -3,-2 -6,-3 -10,-3l-1 -20 106 0 0 20c-10,1 -16,3 -19,7 -3,3 -5,9 -5,19l0 361c0,9 2,16 6,19 3,4 9,6 18,7l0 19 -106 0zm162 0l0 -19c9,-1 15,-3 19,-7 3,-3 4,-10 4,-19l0 -361c0,-10 -1,-16 -5,-19 -3,-4 -9,-6 -18,-7l0 -20 83 0 249 218 0 -172c0,-10 -2,-16 -5,-19 -3,-4 -9,-6 -18,-7l0 -20 91 0 -1 20c-9,1 -15,3 -18,6 -2,3 -4,10 -4,20l0 361c0,10 2,16 5,19 3,4 9,6 18,7l0 19 -91 0 0 -19c9,-1 15,-3 18,-7 3,-3 5,-9 5,-19l0 -110 -264 -231 0 341c0,10 1,16 4,19 3,4 9,6 19,7l0 19 -91 0zm824 4c-17,2 -32,4 -47,5 -14,1 -27,2 -38,2 -32,0 -62,-3 -88,-10 -27,-7 -51,-17 -72,-31 -41,-26 -73,-58 -95,-96 -22,-38 -32,-78 -32,-122 0,-25 3,-49 11,-71 7,-21 18,-41 32,-59 22,-27 48,-47 79,-61 31,-14 65,-21 102,-21 35,0 65,5 92,16 27,10 53,27 78,50l-57 57 -16 -14c2,-3 4,-7 5,-9 2,-3 2,-6 2,-9 0,-13 -10,-24 -29,-34 -20,-11 -44,-16 -72,-16 -49,0 -88,16 -118,46 -30,30 -45,71 -45,121 0,28 5,55 15,81 10,25 26,49 46,70 20,21 44,37 73,50 28,12 56,19 83,19 20,0 37,-5 50,-13 13,-8 21,-19 22,-33l19 0 0 82z"/>
   <path class="fil1" d="M1149 715c0,0 42,0 64,-28 21,-27 7,-63 7,-63l-229 -407c0,0 -13,-31 -39,-31 -26,0 -44,31 -44,31l-212 407c0,0 -23,34 0,64 23,31 48,27 48,27l208 0 197 0z"/>
   <path class="fil0" d="M526 1574c0,0 30,30 65,25 35,-4 50,-39 50,-39l126 -449c0,0 13,-32 -6,-51 -18,-18 -53,-8 -53,-8l-438 138c0,0 -40,8 -45,45 -6,37 15,52 15,52l147 148 139 139z"/>
   <path class="fil2" d="M1384 1574c0,0 -30,30 -64,25 -35,-4 -50,-39 -50,-39l-126 -449c0,0 -13,-32 5,-51 19,-18 53,-8 53,-8l439 138c0,0 39,8 45,45 5,37 -15,52 -15,52l-148 148 -139 139z"/>
   <path class="fil0" d="M1645 771l0 258c0,57 -67,56 -86,0 -10,-32 -16,-67 -77,-67l-438 0 0 561c0,53 82,66 102,77 21,11 44,52 0,52l-191 0 -191 0c-43,0 -20,-41 0,-52 21,-11 102,-24 102,-77l0 -561 -438 0c-61,0 -66,35 -77,67 -19,56 -86,57 -86,0l0 -258 1380 0z"/>
   <path class="fil0" d="M1861 950c0,-500 -406,-905 -906,-905 -500,0 -905,405 -905,905 0,500 405,905 905,905 500,0 906,-405 906,-905zm-906 845c-466,0 -845,-378 -845,-845 0,-467 379,-845 845,-845 467,0 845,378 845,845 0,467 -378,845 -845,845z"/>
  </g>
 </g>
</svg>
